<svg xmlns="http://www.w3.org/2000/svg" viewBox="0 0 2565.97 502.82"><defs><style>.cls-1{fill:#191919;}.cls-2{fill:#231f20;}.cls-3{fill:#fff;}</style></defs><g id="Layer_2" data-name="Layer 2"><g id="Layer_1-2" data-name="Layer 1"><circle class="cls-1" cx="251.41" cy="251.41" r="250.91"/><path class="cls-2" d="M251.41,502.82A251.4,251.4,0,0,1,73.64,73.64,251.41,251.41,0,0,1,429.19,429.19,249.79,249.79,0,0,1,251.41,502.82ZM251.41,1A250.41,250.41,0,0,0,74.34,428.48,250.41,250.41,0,0,0,428.48,74.34,248.8,248.8,0,0,0,251.41,1Z"/><path class="cls-3" d="M542.63,44.58,285.91,300.39a11.81,11.81,0,0,1-16.68,0L191.46,222.6a25,25,0,0,0-35.36,0h0a25,25,0,0,0,0,35.36L242.16,344l.05,0h0l11.64,11.64a33.53,33.53,0,0,0,47.43,0L577.93,80a25,25,0,0,0,0-35.38h0A25,25,0,0,0,542.63,44.58Z"/><path class="cls-1" d="M578,44.61h0a25,25,0,0,0-35.33,0l-76.77,76.5a250.42,250.42,0,0,1,22.64,48L577.93,80A25,25,0,0,0,578,44.61Z"/><path class="cls-2" d="M488.29,170l-.26-.75a250,250,0,0,0-22.6-47.95l-.2-.33.28-.28,76.77-76.5a25.53,25.53,0,0,1,36,0h0a25.51,25.51,0,0,1,0,36.09Zm-21.8-48.88a250.43,250.43,0,0,1,22.22,47.05l88.87-88.57a24.52,24.52,0,0,0,0-34.68h0a24.55,24.55,0,0,0-34.63,0Z"/><path class="cls-1" d="M685.09,424.73c-7.2-2.4-15.2-8.4-15.2-20,0-12,9.2-20,19.6-20a24.69,24.69,0,0,1,8.8,1.6c5.6,1.6,10,2.8,16.8,2.8,14.4,0,22-6,30-22.4l1.6-4.4-78.4-175.19a32.68,32.68,0,0,1-2.8-11.6c0-13.6,10.4-23.6,24-23.6,12.4,0,19.2,7.2,23.6,18.4l56.8,140.4,52.8-140.4c4-10,10.8-18.4,23.2-18.4a22.88,22.88,0,0,1,23.2,22.8,43.4,43.4,0,0,1-2,11.6l-77.2,185.19c-18,43.2-37.2,59.2-71.2,59.2C705.09,430.73,695.09,428.73,685.09,424.73Z"/><path class="cls-2" d="M718.69,431.23c-13.1,0-23.2-1.8-33.77-6-4.68-1.56-15.53-6.68-15.53-20.47,0-11.68,8.64-20.5,20.1-20.5a25.23,25.23,0,0,1,9,1.63c5.2,1.49,9.71,2.77,16.64,2.77,14,0,21.48-5.58,29.55-22.11l1.51-4.17-78.31-175a33,33,0,0,1-2.85-11.8c0-13.74,10.53-24.1,24.5-24.1,11.4,0,19,5.94,24.07,18.71l56.31,139.21,52.35-139.2c5-12.43,12.93-18.72,23.67-18.72,13.29,0,23.7,10.23,23.7,23.3a43.58,43.58,0,0,1-2,11.76L790.35,371.73C772.28,415.11,752.85,431.23,718.69,431.23Zm-29.2-46c-10.89,0-19.1,8.39-19.1,19.5,0,13.16,10.39,18,14.86,19.53h0c10.45,4.18,20.44,6,33.41,6,33.68,0,52.85-16,70.74-58.89l77.2-185.2a42.65,42.65,0,0,0,2-11.4c0-12.51-10-22.3-22.7-22.3-10.43,0-17.87,5.91-22.74,18.08L769.91,312.11,712.63,170.52c-4.85-12.34-12.2-18.08-23.14-18.08-13.4,0-23.5,9.93-23.5,23.1a32.1,32.1,0,0,0,2.76,11.39l78.48,175.38-1.67,4.6c-8.19,16.79-16.16,22.72-30.47,22.72-7.07,0-11.64-1.3-16.94-2.82A24.26,24.26,0,0,0,689.49,385.23Z"/><path class="cls-1" d="M894.69,261.14v-.8c0-60.4,48-110.4,112.8-110.4s112.4,49.2,112.4,109.6v.8c0,60-48,110-113.2,110C942.29,370.33,894.69,321.13,894.69,261.14Zm176.8,0v-.8c0-37.2-26.8-68-64.8-68-38.8,0-63.6,30.4-63.6,67.2v.8c0,36.8,26.8,67.59,64.4,67.59C1046.69,327.93,1071.49,297.54,1071.49,261.14Z"/><path class="cls-2" d="M1006.69,370.83c-31,0-59.55-11.45-80.5-32.24a108.27,108.27,0,0,1-32-77.45v-.8c0-62.19,49.77-110.9,113.3-110.9,31.16,0,59.87,11.47,80.85,32.29a108.68,108.68,0,0,1,32.05,77.81v.8C1120.39,322.3,1070.45,370.83,1006.69,370.83Zm.8-220.39c-63,0-112.3,48.27-112.3,109.9v.8a107.24,107.24,0,0,0,31.71,76.74c20.76,20.61,49.1,31.95,79.79,31.95,63.2,0,112.7-48.09,112.7-109.49v-.8a107.72,107.72,0,0,0-31.75-77.1C1066.84,161.8,1038.38,150.44,1007.49,150.44Zm0,178a62.84,62.84,0,0,1-46.66-20.15c-11.76-12.69-18.24-29.72-18.24-47.94v-.8c0-39.23,27-67.7,64.1-67.7a63.29,63.29,0,0,1,47,20.21c11.79,12.71,18.28,29.86,18.28,48.29v.8C1072,300.13,1044.86,328.43,1007.49,328.43Zm-.8-135.59c-36.56,0-63.1,28-63.1,66.7v.8c0,18,6.38,34.75,18,47.26a61.89,61.89,0,0,0,45.93,19.83c36.79,0,63.5-27.88,63.5-66.29v-.8c0-18.17-6.4-35.08-18-47.61A62.29,62.29,0,0,0,1006.69,192.84Z"/><path class="cls-1" d="M1356.69,343.54a24.4,24.4,0,0,1-48.8,0v-10.8c-13.6,20-33.2,37.19-66,37.19-47.6,0-75.2-32-75.2-81.19V176.34a24.2,24.2,0,1,1,48.4,0v98c0,32.8,16.4,51.2,45.2,51.2,28,0,47.6-19.21,47.6-52v-97.2a24.24,24.24,0,0,1,24.4-24.4,24.5,24.5,0,0,1,24.4,24.4Z"/><path class="cls-2" d="M1241.89,370.43c-46.69,0-75.7-31.3-75.7-81.69V176.34a24.7,24.7,0,1,1,49.4,0v98c0,16.17,3.93,28.81,11.68,37.56s18.82,13.14,33,13.14c28.61,0,47.1-20.22,47.1-51.5v-97.2a24.63,24.63,0,0,1,24.9-24.9,24.93,24.93,0,0,1,24.9,24.9v167.2a24.9,24.9,0,0,1-49.8,0v-9.2C1290.2,359,1269.35,370.43,1241.89,370.43Zm-51.2-218a23.73,23.73,0,0,0-23.5,23.9v112.4c0,24.27,6.79,44.57,19.62,58.71,13.06,14.38,32.11,22,55.08,22,27.59,0,48.43-11.75,65.59-37l.91-1.34v12.43a23.9,23.9,0,0,0,47.8,0V176.34a23.93,23.93,0,0,0-23.9-23.9,23.65,23.65,0,0,0-23.9,23.9v97.2c0,31.89-18.88,52.5-48.1,52.5-29,0-45.7-18.85-45.7-51.7v-98A23.65,23.65,0,0,0,1190.69,152.44Z"/><path class="cls-1" d="M1417.09,176.34c0-13.6,10.4-24.4,24-24.4a24.24,24.24,0,0,1,24.4,24.4v21.6c11.2-26.4,32-46.4,53.2-46.4,15.2,0,24,10,24,24,0,12.8-8.4,21.2-19.2,23.2-34.4,6-58,32.4-58,82.4v62.4a24.16,24.16,0,0,1-24.4,24,23.81,23.81,0,0,1-24-24Z"/><path class="cls-2" d="M1441.09,368a24.24,24.24,0,0,1-24.5-24.49V176.34c0-14,10.76-24.9,24.5-24.9a24.63,24.63,0,0,1,24.9,24.9v19.2c12-26.71,33-44.5,52.7-44.5,14.88,0,24.5,9.61,24.5,24.5,0,12.18-7.7,21.48-19.61,23.69-37.14,6.48-57.59,35.56-57.59,81.91v62.4A24.73,24.73,0,0,1,1441.09,368Zm0-215.59c-13.18,0-23.5,10.5-23.5,23.9v167.2a23.24,23.24,0,0,0,23.5,23.49,23.73,23.73,0,0,0,23.9-23.49v-62.4c0-46.89,20.74-76.33,58.41-82.9,11.41-2.11,18.79-11,18.79-22.7,0-14.28-9.23-23.5-23.5-23.5-19.85,0-41,18.52-52.74,46.09l-1,2.27V176.34A23.65,23.65,0,0,0,1441.09,152.44Z"/><path class="cls-1" d="M1582.29,95.54a23.82,23.82,0,0,1,24-24,24.16,24.16,0,0,1,24.4,24v91.2c13.6-19.6,33.2-36.8,66-36.8,47.6,0,75.2,32,75.2,80.8v112.8a23.58,23.58,0,0,1-24,24c-13.6,0-24.4-10.4-24.4-24v-98c0-32.8-16.4-51.6-45.2-51.6-28,0-47.6,19.6-47.6,52.4v97.2c0,13.59-10.8,24-24.4,24a23.81,23.81,0,0,1-24-24Z"/><path class="cls-2" d="M1747.89,368c-14,0-24.9-10.76-24.9-24.49v-98c0-32.48-16.3-51.1-44.7-51.1-28.62,0-47.1,20.37-47.1,51.9v97.2c0,13.73-10.94,24.49-24.9,24.49a24.24,24.24,0,0,1-24.5-24.49v-248a24.24,24.24,0,0,1,24.5-24.5,24.73,24.73,0,0,1,24.9,24.5v89.62c17.34-24.36,38.19-35.72,65.5-35.72,46.69,0,75.7,31.15,75.7,81.3v112.8C1772.39,357.5,1761.85,368,1747.89,368Zm-69.6-174.59c29,0,45.7,19,45.7,52.1v98c0,13.17,10.49,23.49,23.9,23.49s23.5-10.1,23.5-23.49V230.74c0-49.53-28.63-80.3-74.7-80.3-27.43,0-48.27,11.62-65.59,36.58l-.91,1.31V95.54a23.73,23.73,0,0,0-23.9-23.5,23.25,23.25,0,0,0-23.5,23.5v248a23.24,23.24,0,0,0,23.5,23.49c13.4,0,23.9-10.32,23.9-23.49v-97.2C1630.19,214.2,1649.07,193.44,1678.29,193.44Z"/><path class="cls-1" d="M1816.29,304.74v-.8c0-45.6,35.6-68,87.19-68a176.44,176.44,0,0,1,56.8,8.8v-5.2c0-30-18.4-46-52.4-46-18.4,0-33.6,3.2-46.79,8.4a27.18,27.18,0,0,1-7.6,1.2,20.15,20.15,0,0,1-20.4-20,21.13,21.13,0,0,1,13.2-19.2c20-7.6,40.4-12.4,68-12.4,31.6,0,55.2,8.4,70,23.6,15.6,15.2,22.8,37.6,22.8,65.2v104c0,13.2-10.4,23.2-23.6,23.2-14,0-23.6-9.6-23.6-20.4v-8c-14.4,17.2-36.4,30.8-68.8,30.8C1851.49,369.93,1816.29,347.13,1816.29,304.74Zm144.79-15.2v-14.4c-12.4-4.8-28.8-8.4-48-8.4-31.19,0-49.6,13.2-49.6,35.2v.8c0,20.39,18,32,41.21,32C1936.68,334.74,1961.08,316.33,1961.08,289.54Z"/><path class="cls-2" d="M1891.08,370.43c-20.34,0-39-6-52.56-16.81-14.87-11.89-22.73-28.8-22.73-48.88v-.8c0-22.23,8.22-39.56,24.45-51.51,15.1-11.12,37-17,63.24-17,25.22,0,42,4.11,56.3,8.61v-4.51c0-29.77-17.94-45.5-51.9-45.5-17.07,0-32.32,2.73-46.61,8.36a27.78,27.78,0,0,1-7.78,1.24,20.73,20.73,0,0,1-20.9-20.5,21.56,21.56,0,0,1,13.51-19.67c22.94-8.71,43.33-12.43,68.18-12.43,30.9,0,55.23,8.21,70.36,23.75,15.22,14.83,22.94,36.88,22.94,65.55v104c0,13.29-10.58,23.7-24.1,23.7s-24.1-9.18-24.1-20.9V340.5C1942.26,360.36,1919.29,370.43,1891.08,370.43Zm12.4-134c-26,0-47.72,5.81-62.65,16.8-15.95,11.74-24,28.8-24,50.7v.8c0,19.76,7.73,36.4,22.36,48.1,13.37,10.7,31.82,16.59,51.93,16.59,28.39,0,51.41-10.3,68.42-30.62l.88-1.05v9.37c0,11.16,10.15,19.9,23.1,19.9s23.1-10,23.1-22.7v-104c0-28.39-7.62-50.2-22.64-64.84-15-15.35-39-23.46-69.66-23.46-24.72,0-45,3.7-67.82,12.36a20.54,20.54,0,0,0-12.87,18.74,19.72,19.72,0,0,0,19.9,19.5,27,27,0,0,0,7.46-1.18c14.36-5.66,29.73-8.42,46.93-8.42s30.29,4,39.28,11.87,13.62,19.56,13.62,34.63v5.88l-.65-.21C1945.76,240.65,1928.94,236.44,1903.48,236.44Zm1.21,98.8c-25,0-41.71-13.07-41.71-32.5v-.8c0-22.36,18.73-35.7,50.1-35.7,21.82,0,38.25,4.58,48.18,8.43l.32.12v14.75C1961.58,316,1937.65,335.24,1904.69,335.24Zm8.39-68c-30.74,0-49.1,13-49.1,34.7v.8c0,18.84,16.36,31.5,40.71,31.5,32.38,0,55.89-18.8,55.89-44.7V275.48C1950.69,271.69,1934.51,267.24,1913.08,267.24Z"/><path class="cls-1" d="M2065.08,95.54a23.57,23.57,0,0,1,24-24c13.6,0,24.4,10.4,24.4,24v94c15.6-22,37.6-39.6,72-39.6,49.6,0,98,39.2,98,109.6v.8c0,70-48,109.59-98,109.59-35.2,0-57.2-17.6-72-37.19v10.8a24.2,24.2,0,0,1-48.4,0Zm169.2,164.8v-.8c0-40.8-27.6-67.6-60.4-67.6s-61.6,27.2-61.6,67.6v.8c0,40.4,28.8,67.59,61.6,67.59C2207.08,327.93,2234.28,301.94,2234.28,260.34Z"/><path class="cls-2" d="M2185.48,370.43c-29.25,0-52.65-11.85-71.5-36.22v9.33a24.7,24.7,0,0,1-49.4,0v-248c0-14,10.53-24.5,24.5-24.5S2114,81.8,2114,95.54V188c18.84-25.93,42.24-38.54,71.5-38.54a94.69,94.69,0,0,1,68,28.55c20,20.31,30.54,48.51,30.54,81.55v.8c0,32.93-10.51,61.08-30.39,81.39A94.59,94.59,0,0,1,2185.48,370.43ZM2113,331.24l.9,1.19c18.8,24.9,42.22,37,71.6,37A93.6,93.6,0,0,0,2252.87,341c19.7-20.13,30.11-48,30.11-80.7v-.8c0-32.78-10.46-60.73-30.26-80.85a93.65,93.65,0,0,0-67.24-28.25c-29.38,0-52.8,12.88-71.59,39.39l-.91,1.28V95.54c0-13.18-10.5-23.5-23.9-23.5s-23.5,10.1-23.5,23.5v248a23.7,23.7,0,0,0,47.4,0Zm60.9-2.81a59.6,59.6,0,0,1-43.46-18.8c-12-12.6-18.64-30.11-18.64-49.29v-.8c0-19.19,6.62-36.69,18.64-49.3a59.64,59.64,0,0,1,43.46-18.8,58,58,0,0,1,42.86,18.66c11.63,12.47,18,30,18,49.44v.8c0,20-6.19,37.24-17.89,49.74A58.17,58.17,0,0,1,2173.88,328.43Zm0-136a58.66,58.66,0,0,0-42.74,18.49c-11.84,12.42-18.36,29.68-18.36,48.61v.8c0,18.92,6.52,36.18,18.36,48.6a58.62,58.62,0,0,0,42.74,18.49,57.16,57.16,0,0,0,42.28-18c11.53-12.31,17.62-29.27,17.62-49.05v-.8c0-19.16-6.31-36.47-17.77-48.76A57,57,0,0,0,2173.88,192.44Z"/><path class="cls-1" d="M2332.68,97.54c0-14.4,12-23.6,27.6-23.6s27.6,9.2,27.6,23.6v2.4c0,14.4-12,24-27.6,24s-27.6-9.6-27.6-24Zm3.6,78.8c0-13.6,10.4-24.4,24-24.4a24.24,24.24,0,0,1,24.4,24.4v167.2c0,13.59-10.8,24-24.4,24a23.81,23.81,0,0,1-24-24Z"/><path class="cls-2" d="M2360.28,368a24.24,24.24,0,0,1-24.5-24.49V176.34c0-14,10.76-24.9,24.5-24.9a24.63,24.63,0,0,1,24.9,24.9v167.2C2385.18,357.27,2374.24,368,2360.28,368Zm0-215.59c-13.18,0-23.5,10.5-23.5,23.9v167.2a23.24,23.24,0,0,0,23.5,23.49c13.4,0,23.9-10.32,23.9-23.49V176.34A23.65,23.65,0,0,0,2360.28,152.44Zm0-28c-16.29,0-28.1-10.31-28.1-24.5v-2.4c0-14.19,11.55-24.1,28.1-24.1s28.1,9.91,28.1,24.1v2.4C2388.38,114.13,2376.56,124.44,2360.28,124.44Zm0-50c-16,0-27.1,9.5-27.1,23.1v2.4c0,13.62,11.39,23.5,27.1,23.5s27.1-9.88,27.1-23.5v-2.4C2387.38,83.94,2376.23,74.44,2360.28,74.44Z"/><path class="cls-1" d="M2457.88,307.14V195.94h-8a20.8,20.8,0,0,1,0-41.6h8v-36a24.2,24.2,0,0,1,48.39,0v36h38a20.8,20.8,0,1,1,0,41.6h-38v103.6c0,18.79,9.6,26.39,26,26.39,5.6,0,10.4-1.19,12-1.19,10.8,0,20.4,8.8,20.4,20,0,8.8-6,16-12.8,18.8a96.28,96.28,0,0,1-33.2,5.6C2483.07,369.13,2457.88,353.53,2457.88,307.14Z"/><path class="cls-2" d="M2518.67,369.63c-19.15,0-34-4.61-44.08-13.72-11.42-10.31-17.21-26.72-17.21-48.77V196.44h-7.5a21.3,21.3,0,0,1,0-42.6h7.5v-35.5a24.7,24.7,0,0,1,49.39,0v35.5h37.5a21.3,21.3,0,1,1,0,42.6h-37.5v103.1c0,17.42,8.35,25.89,25.5,25.89a59.21,59.21,0,0,0,9.19-.85,22.51,22.51,0,0,1,2.81-.34c11.33,0,20.9,9.38,20.9,20.49,0,9.53-6.79,16.67-13.11,19.27A96.5,96.5,0,0,1,2518.67,369.63Zm-68.79-214.79a20.3,20.3,0,0,0,0,40.6h8.5v111.7c0,41.38,19.72,61.49,60.29,61.49a95.35,95.35,0,0,0,33-5.57c6-2.47,12.46-9.26,12.46-18.33,0-10.56-9.11-19.49-19.9-19.49a23.52,23.52,0,0,0-2.65.32,60.45,60.45,0,0,1-9.35.87c-17.83,0-26.5-8.79-26.5-26.89V195.44h38.5a20.3,20.3,0,1,0,0-40.6h-38.5v-36.5a23.7,23.7,0,0,0-47.39,0v36.5Z"/></g></g></svg>